<svg width="52" height="52" viewBox="0 0 52 52" fill="none" xmlns="http://www.w3.org/2000/svg">
<rect width="52" height="52" rx="13" fill="#CC3B3A"/>
<path d="M32.9449 38.2926H17.0028C14.6794 38.2926 12.79 36.3935 12.79 34.0582V18.7451C12.79 16.4098 14.6794 14.5107 17.0028 14.5107H30.8258C33.1492 14.5107 35.0386 16.4098 35.0386 18.7451V25.8871C35.0386 26.1232 34.8471 26.3157 34.6122 26.3157C34.3773 26.3157 34.1858 26.1232 34.1858 25.8871V18.7451C34.1858 16.882 32.6794 15.3679 30.8258 15.3679H17.0028C15.1492 15.3679 13.6428 16.882 13.6428 18.7451V34.0582C13.6428 35.9213 15.1492 37.4355 17.0028 37.4355H32.9449C33.1798 37.4355 33.3713 37.6279 33.3713 37.864C33.3713 38.1001 33.1798 38.2926 32.9449 38.2926Z" fill="#EBB1B0"/>
<path d="M13.2419 35.429C13.2343 29.6446 13.2241 23.8627 13.2164 18.0783C13.2164 16.3409 14.6181 14.9346 16.3441 14.9346H18.5449V31.9055C16.9951 31.7181 16.1755 32.0877 15.7083 32.5188C14.5798 33.5607 14.8453 35.5676 14.0258 35.7421C13.7373 35.8037 13.4462 35.6086 13.2394 35.4264L13.2419 35.429Z" fill="#EBB1B0"/>
<path d="M17.179 38.293C15.4198 38.293 13.9875 36.8533 13.9875 35.0851C13.9875 33.0963 15.596 31.4795 17.5747 31.4795H29.1177C29.3526 31.4795 29.5441 31.672 29.5441 31.9081C29.5441 32.1442 29.3526 32.3366 29.1177 32.3366H17.5747C16.0683 32.3366 14.8428 33.5685 14.8428 35.0826C14.8428 36.3786 15.8922 37.4333 17.1815 37.4333C17.4164 37.4333 17.6079 37.6258 17.6079 37.8619C17.6079 38.098 17.4164 38.2904 17.1815 38.2904L17.179 38.293Z" fill="#EBB1B0"/>
<path d="M30.0011 20.072H21.2233C20.9884 20.072 20.7969 19.8795 20.7969 19.6434C20.7969 19.4073 20.9884 19.2148 21.2233 19.2148H30.0011C30.236 19.2148 30.4275 19.4073 30.4275 19.6434C30.4275 19.8795 30.236 20.072 30.0011 20.072Z" fill="#EBB1B0"/>
<path d="M26.3322 22.7282H21.2258C20.9909 22.7282 20.7994 22.5358 20.7994 22.2997C20.7994 22.0636 20.9909 21.8711 21.2258 21.8711H26.3322C26.5671 21.8711 26.7586 22.0636 26.7586 22.2997C26.7586 22.5358 26.5671 22.7282 26.3322 22.7282Z" fill="#EBB1B0"/>
<path d="M38.8403 32.4618C39.1875 33.437 38.7739 34.3224 38.7356 34.3968C38.5747 34.7253 38.3679 34.9537 38.2198 35.0948L34.7679 38.5106C34.6096 37.9075 34.3926 37.4661 34.2164 37.1684C34.0249 36.845 33.7824 36.5165 33.6649 36.3574C33.3534 35.9366 33.2028 35.7929 32.9985 35.431C32.9475 35.3386 32.8198 35.1102 32.7126 34.8202C32.5926 34.502 32.4368 33.9605 32.4522 33.2291C32.2249 33.3831 31.8573 33.6834 31.5841 34.1838C31.0913 35.0897 31.2777 35.9879 31.3364 36.2317C31.0249 35.9135 30.5168 35.295 30.3381 34.4019C30.1186 33.3138 30.5092 32.4233 30.7798 31.8254C32.0232 29.0923 35.1764 27.0674 35.9934 26.5645C35.8045 26.7826 35.5109 27.1906 35.442 27.7501C35.3143 28.7663 36.0139 29.5747 36.2794 29.8827C36.8002 30.4858 37.0249 30.3677 37.8624 31.1915C38.4011 31.7227 38.6717 31.9896 38.8403 32.4618Z" fill="white"/>
</svg>
