<svg width="52" height="52" viewBox="0 0 52 52" fill="none" xmlns="http://www.w3.org/2000/svg">
<rect width="52" height="52" rx="13" fill="#CC3B3A"/>
<path d="M31.282 28.4141H26.1687C24.666 28.4141 23.4383 27.1864 23.4383 25.6837V16.8349C23.4383 15.3322 24.666 14.1045 26.1687 14.1045H36.3052C37.808 14.1045 39.0356 15.3322 39.0356 16.8349V25.6837C39.0356 27.1864 37.808 28.4141 36.3052 28.4141H35.6851C35.6076 28.4141 35.5326 28.4491 35.4801 28.5066L33.2573 31.087C33.0072 31.387 32.5297 31.307 32.3922 30.942L31.4795 28.5466C31.4495 28.4666 31.372 28.4116 31.2845 28.4116L31.282 28.4141Z" fill="white"/>
<path d="M28.7541 28.8067V32.5173C28.7541 34.02 27.5264 35.2477 26.0237 35.2477H20.9104C20.8229 35.2477 20.7454 35.3027 20.7129 35.3802L19.8003 37.7755C19.6627 38.1406 19.1827 38.2206 18.9351 37.9206L16.7123 35.3402C16.6623 35.2802 16.5873 35.2452 16.5073 35.2452H15.8897C14.387 35.2452 13.1543 34.0175 13.1543 32.5148V23.6659C13.1543 22.1632 14.3845 20.9355 15.8897 20.9355H23.0458V25.6813C23.0458 27.404 24.446 28.8042 26.1687 28.8042H28.7541V28.8067Z" fill="white" fill-opacity="0.6"/>
<path d="M29.3492 22.4053H27.764C27.3339 22.4053 26.9814 22.0527 26.9814 21.6226V20.7625C26.9814 20.3325 27.3339 19.9799 27.764 19.9799H29.2642H29.9568C29.9918 19.9799 30.0218 19.9499 30.0218 19.9149V17.7221C30.0218 17.292 30.3743 16.9395 30.8044 16.9395H31.6645C32.0946 16.9395 32.4472 17.292 32.4472 17.7221V19.9149C32.4472 19.9499 32.4772 19.9799 32.5122 19.9799H34.705C35.1351 19.9799 35.4876 20.3325 35.4876 20.7625V21.6226C35.4876 22.0527 35.1351 22.4053 34.705 22.4053H33.1548H32.5122C32.4772 22.4053 32.4472 22.4353 32.4472 22.4703V24.6631C32.4472 25.0932 32.0946 25.4457 31.6645 25.4457H30.8044C30.3743 25.4457 30.0218 25.0932 30.0218 24.6631V22.4703C30.0218 22.4353 29.9918 22.4053 29.9568 22.4053H29.3492Z" fill="#CB3A39"/>
<path d="M24.0109 29.0819C24.3135 29.7545 23.9609 30.4921 23.9309 30.5546C23.8084 30.8047 23.6509 30.9797 23.5358 31.0847L20.8955 33.6851C20.7754 33.2275 20.6079 32.89 20.4729 32.6649C20.3279 32.4174 20.1403 32.1699 20.0503 32.0473C19.8128 31.7273 19.6978 31.6173 19.5403 31.3422C19.5003 31.2722 19.4027 31.0972 19.3202 30.8772C19.2277 30.6346 19.1077 30.2221 19.1227 29.667C19.0352 29.857 18.8902 30.1346 18.6551 30.4396C18.5301 30.5996 18.4776 30.6446 18.4151 30.7372C18.2701 30.9497 18.1451 31.3072 18.2701 31.9498C18.0325 31.7073 17.645 31.2372 17.5075 30.5571C17.3399 29.7295 17.6375 29.0519 17.845 28.5968C18.7951 26.5165 21.208 24.9788 21.8331 24.5938C21.6431 24.7838 21.4605 25.0963 21.4105 25.4964C21.3855 25.6939 21.4105 25.8914 21.473 26.089C21.5806 26.4365 21.7456 26.6416 22.1707 27.1291C22.7357 27.7792 23.0208 28.1043 23.1283 28.2118C23.7534 28.8219 23.8709 28.7769 24.0084 29.0819H24.0109Z" fill="#CB3A39"/>
</svg>
