<svg width="52" height="52" viewBox="0 0 52 52" fill="none" xmlns="http://www.w3.org/2000/svg">
<rect width="52" height="52" rx="13" fill="#CC3B3A"/>
<path d="M21.6547 17.5833C21.6547 17.3107 21.4319 17.0879 21.1593 17.0879H17.1173C17.1173 17.0879 17.0937 17.0879 17.0806 17.0932C16.3545 16.0053 15.112 15.2871 13.707 15.2871C12.1657 15.2871 10.7738 16.1416 10.0661 17.544L10.0451 17.5807C9.96385 17.759 9.99531 17.9477 10.1159 18.084L10.1211 18.0893C10.2024 18.2334 10.3597 18.3278 10.5405 18.3278H13.5812V20.527H10.5956C10.3492 20.527 10.1421 20.7131 10.1054 20.9517V20.9569C10.0713 21.0775 10.0844 21.2086 10.15 21.3239C10.8682 22.6136 12.2339 23.4183 13.7096 23.4183C15.1854 23.4183 16.3991 22.6765 17.1199 21.5546C17.3139 21.2584 17.4686 20.9281 17.576 20.5821H20.7478C20.9968 20.5821 21.1908 20.396 21.2275 20.1601H22.4175V18.2046C22.4175 17.9818 22.3651 17.7721 22.2681 17.586H21.6547V17.5833Z" fill="white" fill-opacity="0.6"/>
<path d="M41.4033 20.5267H41.3693C41.3693 20.5267 41.3614 20.5267 41.3588 20.5267H38.4177V18.3301H41.4584C41.6025 18.3301 41.7284 18.2672 41.8201 18.1676C41.9879 18.026 42.0534 17.7875 41.9512 17.5804L41.9197 17.5149C41.2225 16.1387 39.8332 15.2842 38.2919 15.2842C38.2762 15.2842 38.263 15.2842 38.2473 15.2842C38.2473 15.2842 38.2473 15.2842 38.2447 15.2842C38.2368 15.2842 38.2264 15.2842 38.2185 15.2842C38.0874 15.2842 37.9564 15.2947 37.8279 15.3078C37.7152 15.3183 37.6051 15.3392 37.495 15.3576C37.4819 15.3576 37.4714 15.3628 37.4583 15.3654C36.3836 15.5778 35.4583 16.2069 34.8711 17.085H34.8475C34.8475 17.085 34.837 17.085 34.8318 17.085H32.8658C32.5932 17.085 32.3731 17.3052 32.3704 17.5778H29.4163V20.1519H32.3206C32.3573 20.3904 32.5539 20.5739 32.8003 20.5739H34.415C34.5172 20.8911 34.6588 21.1925 34.8318 21.4704V21.5438C35.4871 22.5608 36.5854 23.2607 37.8515 23.3839C37.9039 23.3892 37.959 23.3918 38.014 23.3944C38.09 23.3996 38.1661 23.4101 38.2421 23.4101C38.2499 23.4101 38.2604 23.4101 38.2683 23.4101C38.2762 23.4101 38.2814 23.4101 38.2866 23.4101C39.765 23.4101 41.1281 22.608 41.8437 21.3131C41.9171 21.182 41.9171 21.0353 41.8699 20.9068C41.8175 20.6892 41.6314 20.5215 41.3981 20.5215L41.4033 20.5267Z" fill="white" fill-opacity="0.6"/>
<path d="M19.5735 22.1073V21.625H22.4149V22.1073C22.4149 22.8544 21.8121 23.4573 21.065 23.4573H20.9208C20.1738 23.4573 19.5735 22.8544 19.5735 22.1073Z" fill="white"/>
<path d="M32.2001 16.0833C31.9248 15.808 31.5526 15.6298 31.1411 15.6088C30.1974 15.5564 29.4215 16.3769 29.4215 17.3205V20.9903C29.4451 21.027 29.4844 21.0611 29.5211 21.0847C29.6994 20.9484 29.9012 20.8487 30.1162 20.7885C30.2603 20.7439 30.4098 20.7177 30.5618 20.7098H32.6824V17.2288C32.6824 16.7832 32.5015 16.3742 32.2027 16.0833H32.2001ZM36.2211 23.9156C36.111 23.4333 35.7912 22.3901 34.8476 21.5565C34.7558 21.4779 34.6667 21.4045 34.575 21.3389C34.2001 21.0585 33.7388 20.9143 33.2722 20.9143H30.567C30.0428 20.9379 29.5683 21.2079 29.28 21.6246C29.1882 21.7478 29.1148 21.8842 29.065 22.0336C29.0152 22.1725 28.9916 22.3193 28.9916 22.4635C28.9916 22.6732 29.0414 22.8802 29.1411 23.0663C29.2931 23.3547 29.5159 23.5906 29.7806 23.7557C30.048 23.9209 30.3573 24.0126 30.685 24.0152L31.9589 24.031C32.1896 24.0362 32.2761 24.335 32.0874 24.4609L28.7269 26.6706C28.2944 26.9511 27.9667 27.3705 27.8068 27.8633C27.6364 28.3744 27.6548 28.9328 27.8566 29.4308L30.6195 36.3352C30.6404 36.3798 30.706 36.3693 30.7112 36.3221L30.9917 33.3365C30.9917 32.6366 31.2145 31.9498 31.6313 31.3863L32.5015 30.3876L35.8594 26.5317C36.4125 25.7767 36.5488 24.7964 36.2264 23.9209L36.2211 23.9156Z" fill="white"/>
<path d="M27.5682 27.6427C27.7413 27.1106 28.0951 26.6492 28.5696 26.3478L31.9274 24.138L31.9117 24.0882L30.6378 24.0673C30.2786 24.062 29.9326 23.965 29.6312 23.7789C29.5814 23.7501 29.5316 23.716 29.487 23.6767C29.4451 23.7789 29.4005 23.8759 29.3428 23.9703C28.9759 24.5889 28.3022 24.9768 27.5892 24.9768C26.8055 24.9768 26.1239 24.5365 25.7858 23.889C25.424 24.3477 24.8657 24.6439 24.2392 24.6439H24.0898C23.2117 24.6439 22.4594 24.0594 22.2182 23.2573C21.9037 23.5456 21.4895 23.7239 21.0256 23.7239H20.8761C20.2339 23.7239 19.7778 23.4801 19.403 22.9821L19.3663 22.9375C19.2352 22.6911 19.1592 22.4106 19.1592 22.1118L19.1304 25.0529V27.2757C19.1304 28.4631 19.4449 29.6427 20.0295 30.6781C20.4384 31.399 20.6533 32.2168 20.6533 33.0504V36.0045C20.6533 36.2064 20.8211 36.3767 21.0282 36.3767C21.0491 36.3767 21.0701 36.3689 21.0911 36.3636H30.2996C30.3573 36.3636 30.394 36.306 30.373 36.2535L27.6128 29.357C27.39 28.8118 27.3769 28.2115 27.563 27.6505L27.5682 27.6427ZM22.268 17.5822C22.04 17.1497 21.5917 16.8535 21.0675 16.8535H20.9233C20.8657 16.8535 20.8132 16.8588 20.7556 16.8614C20.3257 16.9138 19.9797 17.2048 19.804 17.5822C19.7175 17.7526 19.673 17.9413 19.6677 18.1353L19.6048 20.1563L19.576 21.1839V22.1065C19.576 22.1642 19.5812 22.2219 19.5891 22.2795C19.5891 22.3005 19.5943 22.3215 19.6022 22.3425C19.6022 22.3582 19.6074 22.3765 19.6101 22.3923C19.6153 22.429 19.6258 22.4709 19.6389 22.5076C19.6546 22.5574 19.673 22.6098 19.6966 22.657C19.7044 22.6806 19.7175 22.7068 19.7306 22.7304C19.7542 22.775 19.7804 22.8169 19.804 22.8589C19.804 22.8589 19.804 22.8641 19.8093 22.8641C19.8591 22.9349 19.9115 23.0004 19.9744 23.0633C20.0033 23.0921 20.0373 23.121 20.0688 23.1498C20.1029 23.1786 20.1396 23.2022 20.171 23.2285C20.2418 23.2783 20.3204 23.3228 20.4017 23.3517C20.4436 23.3674 20.4829 23.3857 20.5249 23.3962C20.5616 23.4093 20.6035 23.4198 20.6455 23.425C20.6795 23.4329 20.7084 23.4408 20.7398 23.4408C20.8027 23.4539 20.8604 23.4565 20.9259 23.4565H21.0701C21.8172 23.4565 22.4201 22.8536 22.4201 22.1092V18.2035C22.4201 17.9807 22.3676 17.771 22.2707 17.5849L22.268 17.5822Z" fill="white"/>
<path d="M25.8357 17.488V22.8197C25.8357 23.6742 25.1384 24.3741 24.2813 24.3741H24.1319C23.2773 24.3741 22.5801 23.6742 22.5801 22.8197V17.488C22.5801 16.6335 23.2773 15.9336 24.1319 15.9336H24.2813C25.1384 15.9336 25.8357 16.6335 25.8357 17.488Z" fill="white"/>
<path d="M29.259 17.2287V21.3205C29.2092 21.3782 29.1594 21.4411 29.1148 21.5014C29.0073 21.6455 28.9261 21.8028 28.871 21.9627C28.8186 22.1226 28.7845 22.293 28.7845 22.4608C28.7845 22.7045 28.8474 22.9483 28.9575 23.158C29.0231 23.2812 29.1017 23.3966 29.1961 23.504C29.1594 23.643 29.1017 23.7793 29.0283 23.9051C28.7478 24.3848 28.2236 24.7098 27.6312 24.7098C26.7373 24.7098 26.0034 23.9759 26.0034 23.082V17.2287C26.0034 16.7831 26.1895 16.3742 26.4831 16.0832C26.7793 15.787 27.1882 15.6035 27.6338 15.6035C28.5276 15.6035 29.2642 16.3322 29.2642 17.2287H29.259Z" fill="white"/>
</svg>
