<svg width="52" height="52" viewBox="0 0 52 52" fill="none" xmlns="http://www.w3.org/2000/svg">
<rect width="52" height="52" rx="13" fill="#CC3B3A"/>
<path d="M10.6271 30.1758C10.2793 30.1758 10 29.8936 10 29.5487C10 25.6266 11.4622 21.8755 14.1159 18.991C14.3525 18.7344 14.7487 18.7202 15.0024 18.9539C15.2561 19.1876 15.2732 19.5867 15.0394 19.8404C12.5995 22.4941 11.257 25.9401 11.257 29.5458C11.257 29.8936 10.9748 30.1729 10.6299 30.1729L10.6271 30.1758Z" fill="white" fill-opacity="0.6"/>
<path d="M40.5672 30.1754C40.2195 30.1754 39.9401 29.8932 39.9401 29.5483C39.9401 21.6386 33.5069 15.2053 25.5971 15.2053C23.8727 15.2053 22.1881 15.5075 20.5891 16.1032C20.2641 16.2229 19.9021 16.0604 19.7824 15.7355C19.6598 15.4106 19.8252 15.0486 20.1501 14.9288C21.8888 14.279 23.7216 13.9512 25.5971 13.9512C34.1995 13.9512 41.1943 20.9488 41.1943 29.5512C41.1943 29.8989 40.9121 30.1783 40.5672 30.1783V30.1754Z" fill="white" fill-opacity="0.6"/>
<path d="M32.7434 28.8229C33.3789 30.3024 32.642 31.9258 32.5764 32.0603C32.3168 32.6109 31.9856 32.9956 31.7499 33.2302L26.2097 38.9512C25.9561 37.9408 25.6041 37.2027 25.3237 36.7053C25.0164 36.1642 24.6285 35.6168 24.4376 35.3478C23.9364 34.644 23.6977 34.4032 23.3695 33.7963C23.286 33.6431 23.0831 33.2583 22.9101 32.7735C22.7191 32.2418 22.4655 31.3347 22.4954 30.1116C22.3134 30.5308 22.0061 31.1439 21.5138 31.8101C21.2543 32.1604 21.1409 32.2637 21.0066 32.467C20.7023 32.933 20.4398 33.7244 20.7053 35.1351C20.2071 34.6002 19.3926 33.568 19.1032 32.0729C18.7512 30.2493 19.3777 28.7604 19.8133 27.7594C21.8092 23.1833 26.8691 19.7957 28.1818 18.9512C27.782 19.3703 27.4001 20.0585 27.2957 20.9343C27.242 21.3691 27.2987 21.8038 27.4299 22.2386C27.6567 23.0018 28.0028 23.4585 28.8918 24.5283C30.0792 25.9609 30.6729 26.6772 30.9027 26.9086C32.2124 28.2505 32.463 28.1536 32.7494 28.8229H32.7434Z" fill="white"/>
<path d="M17.5 13.7012C15.4337 13.7012 13.75 15.3849 13.75 17.4512C13.75 19.5174 15.4337 21.2012 17.5 21.2012C19.5662 21.2012 21.25 19.5174 21.25 17.4512C21.25 15.3849 19.5662 13.7012 17.5 13.7012ZM19.2925 16.5887L17.1662 18.7149C17.1137 18.7674 17.0425 18.7974 16.9675 18.7974C16.8925 18.7974 16.8212 18.7674 16.7688 18.7149L15.7075 17.6537C15.5987 17.5449 15.5987 17.3649 15.7075 17.2562C15.8162 17.1474 15.9962 17.1474 16.105 17.2562L16.9675 18.1187L18.895 16.1912C19.0038 16.0824 19.1838 16.0824 19.2925 16.1912C19.4013 16.2999 19.4013 16.4762 19.2925 16.5887Z" fill="#EBB1B0"/>
</svg>
